# xmcd
#
# Track frame offsets: 
#        187
#        17625
#        32237
#        52725
#        74650
#        111825
#        135387
#        150225
#        171950
#        197187
#
# Disc length: 2981 seconds
#
# Revision: 5
# Processed by: cddbd v1.5.1PL2 Copyright (c) Steve Scherf et al.
# Submitted via: ExactAudioCopy v0.95b3
#
DISCID=800ba30a
DTITLE=Tom Waits - Blue Valentine
DYEAR=1978
DGENRE=Blues
TTITLE0=Somewhere
TTITLE1=Red Shoes By The Drugstore
TTITLE2=Christmas Cards From A Hooker In Minneapolis
TTITLE3=Romeo Is Bleeding
TTITLE4=$29.00
TTITLE5=Wrong Side Of The Road
TTITLE6=Whistlin' Past The Graveyard
TTITLE7=Kentucky Ave
TTITLE8=Sweet Little Bullet From A Pretty Blue Gun
TTITLE9=Blue Valentines
EXTD=
EXTT0=
EXTT1=
EXTT2=
EXTT3=
EXTT4=
EXTT5=
EXTT6=
EXTT7=
EXTT8=
EXTT9=
PLAYORDER=
